<svg xmlns="http://www.w3.org/2000/svg" xmlns:xlink="http://www.w3.org/1999/xlink" preserveAspectRatio="xMidYMid" width="40" height="33" viewBox="0 0 40 33">
  <defs>
    <style>
      .cls-1 {
        fill: #5a5671;
        fill-rule: evenodd;
      }
    </style>
  </defs>
  <path d="M36.875,32.999 L3.125,32.999 C1.399,32.999 -0.000,31.600 -0.000,29.877 L-0.000,13.641 C-0.000,11.917 1.399,10.520 3.125,10.520 L19.143,10.520 L19.058,10.511 C19.070,10.392 19.383,7.591 21.882,5.963 C22.695,5.434 23.847,5.348 24.960,5.266 C25.852,5.199 26.963,5.116 27.311,4.767 C29.756,2.313 29.477,0.325 29.473,0.305 L31.165,-0.002 C31.186,0.114 31.640,2.859 28.528,5.983 C27.728,6.786 26.386,6.885 25.087,6.982 C24.232,7.046 23.263,7.117 22.819,7.406 C21.289,8.403 20.887,10.018 20.796,10.520 L36.875,10.520 C38.601,10.520 40.000,11.917 40.000,13.641 L40.000,29.877 C40.000,31.600 38.601,32.999 36.875,32.999 ZM38.364,14.148 C38.364,13.068 37.482,12.191 36.393,12.191 L3.599,12.191 C2.510,12.191 1.628,13.068 1.628,14.148 L1.628,29.411 C1.628,30.493 2.510,31.370 3.599,31.370 L36.393,31.370 C37.482,31.370 38.364,30.493 38.364,29.411 L38.364,14.148 ZM32.685,15.460 L35.941,15.460 L35.941,18.667 L32.685,18.667 L32.685,15.460 ZM27.919,15.460 L31.175,15.460 L31.175,18.667 L27.919,18.667 L27.919,15.460 ZM23.075,15.460 L26.330,15.460 L26.330,18.667 L23.075,18.667 L23.075,15.460 ZM18.293,15.460 L21.549,15.460 L21.549,18.667 L18.293,18.667 L18.293,15.460 ZM13.490,15.460 L16.746,15.460 L16.746,18.667 L13.490,18.667 L13.490,15.460 ZM8.698,15.460 L11.954,15.460 L11.954,18.667 L8.698,18.667 L8.698,15.460 ZM3.932,15.460 L7.188,15.460 L7.188,18.667 L3.932,18.667 L3.932,15.460 ZM9.547,23.363 L3.932,23.363 L3.932,20.156 L9.547,20.156 L9.547,23.363 ZM7.188,28.212 L3.932,28.212 L3.932,25.005 L7.188,25.005 L7.188,28.212 ZM11.954,28.212 L8.698,28.212 L8.698,25.005 L11.954,25.005 L11.954,28.212 ZM11.097,20.193 L14.353,20.193 L14.353,23.401 L11.097,23.401 L11.097,20.193 ZM19.134,20.193 L19.134,23.401 L15.879,23.401 L15.879,20.193 L19.134,20.193 ZM23.979,20.193 L23.979,23.401 L20.723,23.401 L20.723,20.193 L23.979,20.193 ZM26.336,28.241 L13.490,28.241 L13.490,25.034 L26.336,25.034 L26.336,28.241 ZM25.489,20.193 L28.745,20.193 L28.745,23.401 L25.489,23.401 L25.489,20.193 ZM31.168,28.241 L27.913,28.241 L27.913,25.034 L31.168,25.034 L31.168,28.241 ZM30.319,20.178 L35.934,20.178 L35.934,23.386 L30.319,23.386 L30.319,20.178 ZM35.934,28.241 L32.679,28.241 L32.679,25.034 L35.934,25.034 L35.934,28.241 Z" class="cls-1"/>
</svg>
