<svg xmlns="http://www.w3.org/2000/svg" xmlns:xlink="http://www.w3.org/1999/xlink" preserveAspectRatio="xMidYMid" width="24.906" height="20.9" viewBox="0 0 24.906 20.9">
  <defs>
    <style>
      .cls-1 {
        fill: #5a4fab;
        fill-rule: evenodd;
      }
    </style>
  </defs>
  <path d="M24.572,0.204 C24.319,0.001 23.965,-0.050 23.661,0.072 L0.911,9.059 C0.324,9.312 -0.020,9.871 0.011,10.480 C0.051,11.100 0.466,11.618 1.073,11.790 L9.766,14.339 L10.080,20.086 C10.100,20.442 10.343,20.757 10.687,20.868 C10.778,20.899 10.890,20.919 10.991,20.919 C11.254,20.919 11.497,20.818 11.669,20.625 L14.644,17.436 L18.884,20.289 C19.127,20.452 19.421,20.544 19.724,20.544 C20.422,20.544 21.040,20.056 21.192,19.376 L24.885,1.077 C24.956,0.752 24.835,0.417 24.572,0.204 ZM10.394,12.653 L2.520,10.348 L20.352,3.301 L10.394,12.653 ZM12.084,13.547 L22.487,3.778 L19.502,18.533 L12.084,13.547 ZM11.780,17.853 L11.648,15.426 L13.126,16.410 L11.780,17.853 Z" class="cls-1"/>
</svg>
