<svg xmlns="http://www.w3.org/2000/svg" xmlns:xlink="http://www.w3.org/1999/xlink" preserveAspectRatio="xMidYMid" width="19.82" height="26.97" viewBox="0 0 19.82 26.97">
  <defs>
    <style>
      .cls-1 {
        fill: #f3f3f3;
        fill-rule: evenodd;
      }
    </style>
  </defs>
  <path d="M19.547,23.280 C19.207,23.854 18.607,24.186 17.936,24.186 L13.212,24.186 C12.942,25.777 11.560,26.976 9.909,26.976 C8.257,26.976 6.876,25.777 6.606,24.186 L1.881,24.186 C1.211,24.186 0.610,23.854 0.270,23.280 C-0.070,22.706 -0.090,22.011 0.220,21.427 L1.451,19.121 L1.451,13.301 C1.451,9.666 3.833,6.413 7.276,5.276 L7.276,2.617 C7.276,1.167 8.457,-0.011 9.909,-0.011 C11.360,-0.011 12.541,1.167 12.541,2.617 L12.541,5.276 C15.984,6.404 18.366,9.666 18.366,13.301 L18.366,19.121 L19.598,21.427 C19.908,22.011 19.888,22.706 19.547,23.280 ZM9.909,24.982 C10.449,24.982 10.930,24.659 11.150,24.186 L8.668,24.186 C8.888,24.659 9.368,24.982 9.909,24.982 ZM10.559,2.617 C10.559,2.265 10.269,1.973 9.909,1.973 C9.548,1.973 9.258,2.265 9.258,2.617 L9.258,4.883 C9.478,4.863 9.689,4.863 9.909,4.863 C10.129,4.863 10.339,4.863 10.559,4.883 L10.559,2.617 ZM16.375,13.301 C16.375,9.736 13.472,6.847 9.909,6.847 C6.345,6.847 3.443,9.736 3.443,13.301 L3.443,18.325 L16.375,18.325 L16.375,13.301 ZM16.755,20.319 L3.063,20.319 L2.062,22.202 L17.756,22.202 L16.755,20.319 ZM9.088,8.176 C9.618,8.176 10.059,8.608 10.059,9.142 C10.059,9.676 9.618,10.119 9.088,10.119 C7.777,10.119 6.716,11.177 6.716,12.485 C6.716,13.019 6.285,13.452 5.745,13.452 C5.214,13.452 4.774,13.019 4.774,12.485 C4.774,10.109 6.706,8.176 9.088,8.176 Z" class="cls-1"/>
</svg>
